# xmcd
#
# Track frame offsets:
#	150
#	22607
#	36270
#	58702
#	75787
#
# Disc length: 1243 seconds
#
# Revision: 1
# Processed by: cddbd v1.5.1PL0 Copyright (c) Steve Scherf et al.
# Submitted via: CDex 1.50Beta5
#
DISCID=2804d905
DTITLE=Hondalady - Euro Beat Boxer E.P.
DYEAR=1900
DGENRE=Rock
TTITLE0=The CATs
TTITLE1=ライオンウォッチング
TTITLE2=Olive
TTITLE3=88-Eighty Eight-
TTITLE4=ボーナストラック
EXTD=
EXTT0=
EXTT1=
EXTT2=
EXTT3=
EXTT4=
PLAYORDER=
